<svg width="824" height="307" viewBox="0 0 824 307" fill="none" xmlns="http://www.w3.org/2000/svg">
<g clip-path="url(#clip0_534_818)">
<mask id="mask0_534_818" style="mask-type:luminance" maskUnits="userSpaceOnUse" x="0" y="0" width="824" height="307">
<path d="M824 0H0V307H824V0Z" fill="white"/>
</mask>
<g mask="url(#mask0_534_818)">
<path d="M324.982 126.698C332.579 125.304 340.272 124.502 347.993 124.298C357.049 124.298 361.174 127.489 361.174 133.741C361.174 139.993 355.985 145.713 349.991 145.713H332.298V160.891H349.991C357.581 160.891 362.769 165.146 362.769 171.672C362.769 179.791 358.113 183.391 349.056 183.391C340.674 183.096 332.319 182.251 324.047 180.861L323.113 194.828C323.113 194.828 338.695 199.356 351.731 199.356C373.163 199.356 381.671 189.768 381.671 171.269C381.671 159.426 377.143 156.234 369.827 152.239C376.208 147.985 380.075 142.119 380.075 132.548C380.075 116.176 372.485 108.329 349.33 108.329C340.607 108.512 331.973 110.129 323.774 113.114L324.966 126.698H324.982ZM430.4 197.777C462.886 197.777 468.864 181.677 468.864 150.805C468.864 119.933 461.935 107.281 430.4 107.281H399.913V197.791H430.401L430.4 197.777ZM449.978 150.805C449.978 170.898 448.254 181.805 430.4 181.805H418.282V123.25H430.4C448.238 123.25 449.962 130.969 449.962 150.805H449.978ZM520.122 146.405V131.226H503.735V112.726H485.896V131.226H478.048V146.405H485.896V174.091C485.896 193.251 490.553 199.374 506.667 199.374C511.241 199.071 515.784 198.402 520.251 197.374L519.445 183.129C519.445 183.129 513.064 183.403 509.325 183.403C503.733 183.403 503.733 180.341 503.733 173.703V146.423H520.121L520.122 146.405ZM558.844 129.63C535.688 129.63 528.227 143.875 528.227 164.372C528.227 184.869 535.688 199.372 558.844 199.372C582 199.372 589.461 184.872 589.461 164.372C589.461 143.872 582 129.631 558.844 129.631V129.63ZM558.844 184.209C548.998 184.209 546.344 177.28 546.344 164.372C546.344 151.464 549.003 144.794 558.844 144.794C568.685 144.794 571.344 151.449 571.344 164.372C571.344 177.295 568.69 184.21 558.844 184.21V184.209ZM603.303 197.791H621.673V127.778H623.673L641.382 193.797H659.752L677.445 127.778H679.445V197.791H697.813V107.281H666.534L650.565 173.3L634.596 107.281H603.319V197.791H603.303ZM743.188 183.676C733.6 183.676 729.878 180.066 729.749 172.09H768.874L770.211 159.715C770.211 139.621 760.768 129.63 741.19 129.63C721.612 129.63 711.782 141.748 711.782 165.436C711.782 189.124 720.306 199.371 740.4 199.371C752.775 199.371 768.084 195.649 768.084 195.649L767.81 182.468C767.81 182.468 754.11 183.677 743.188 183.677V183.676ZM729.604 158.522C729.733 148.402 732.666 144.277 741.19 144.277C749.714 144.277 752.631 147.742 752.631 158.522H729.604Z" fill="black"/>
<path d="M167.443 54.2812L54 119.781V187.224L167.443 252.724L280.886 187.224V119.781L167.443 54.2812ZM170.305 126.353L216.919 153.414L170.305 180.327V126.353ZM164.58 180.327L117.967 153.413L164.581 126.352L164.58 180.327ZM173.142 121.389L219.273 94.6152L219.641 148.384L173.141 121.384L173.142 121.389ZM115.235 148.389L115.6 94.6143L161.731 121.388L115.235 148.389ZM109.51 148.544L62.587 121.429L109.9 94.1152L109.52 148.523L109.51 148.544ZM161.718 185.295L114.794 212.381L115.17 158.415L161.718 185.295ZM164.58 190.251V244.47L117.623 217.36L164.58 190.251ZM170.305 190.251L217.262 217.361L170.305 244.471V190.246V190.251ZM173.167 185.295L219.715 158.423L220.091 212.389L173.167 185.295ZM225 94.1323L272.309 121.446L225.375 148.539L225 94.1323ZM216.83 89.4132L167.443 118.081L118.057 89.4132L167.443 60.8973L216.83 89.4132ZM59.725 126.393L109.47 155.114L109.077 212.408L59.725 183.917V126.393ZM225.817 212.408L225.424 155.114L275.17 126.393V183.916L225.817 212.408Z" fill="#007AFF"/>
</g>
</g>
<defs>
<clipPath id="clip0_534_818">
<rect width="824" height="307" fill="white"/>
</clipPath>
</defs>
</svg>
