<?xml version="1.0" encoding="iso-8859-1"?>
<!-- Generator: Adobe Illustrator 19.0.0, SVG Export Plug-In . SVG Version: 6.00 Build 0)  -->
<svg version="1.1" id="Layer_1" xmlns="http://www.w3.org/2000/svg" xmlns:xlink="http://www.w3.org/1999/xlink" x="0px" y="0px"
	 viewBox="0 0 512 512" style="enable-background:new 0 0 512 512;" xml:space="preserve">
<path style="fill:#D4E8FF;" d="M158.99,503.916c-83.343,0-150.905-67.562-150.905-150.905S75.647,202.106,158.99,202.106
	s150.905,67.562,150.905,150.905S242.332,503.916,158.99,503.916z"/>
<path style="fill:#6583B7;" d="M158.99,439.242c-47.625,0-86.232-38.607-86.232-86.232s38.607-86.232,86.232-86.232
	s86.232,38.607,86.232,86.232S206.614,439.242,158.99,439.242z"/>
<path style="fill:#ACE5AC;" d="M180.37,369.74c-10.523,10.523-27.585,10.523-38.109,0l0,0c-10.523-10.523-10.523-27.585,0-38.109
	L217.172,256l38.109,38.109L180.37,369.74z"/>
<path style="fill:#81BC82;" d="M236.839,313.059l-30.487,30.487l-38.194-38.194l30.487-30.487L236.839,313.059z"/>
<path style="fill:#FE5A3A;" d="M222.29,327.82l-38.109-38.109c-4.209-4.209-4.209-11.034,0-15.244L439.513,19.134
	c14.733-14.733,38.62-14.733,53.353,0l0,0c14.733,14.733,14.733,38.62,0,53.353L237.534,327.82
	C233.324,332.03,226.499,332.03,222.29,327.82z"/>
<path style="fill:#FE7D49;" d="M184.18,274.467L439.513,19.134c14.672-14.672,38.422-14.728,53.169-0.175L203.055,308.585
	L184.18,289.71C179.971,285.501,179.971,278.676,184.18,274.467z"/>
<path d="M118.138,429.399c1.73-4.118,6.47-6.05,10.586-4.319c9.587,4.03,19.77,6.074,30.265,6.074
	c43.091,0,78.147-35.059,78.147-78.151c0-4.465,3.618-8.084,8.084-8.084s8.084,3.62,8.084,8.084c0,52.008-42.31,94.32-94.316,94.32
	c-12.659,0-24.95-2.469-36.533-7.338C118.341,438.255,116.407,433.516,118.138,429.399z M299.786,297.984
	c-4.24,1.399-6.542,5.972-5.143,10.212c4.756,14.408,7.167,29.484,7.167,44.808c0,78.755-64.069,142.827-142.821,142.827
	S16.169,431.759,16.169,353.004S80.238,210.177,158.99,210.177c15.321,0,30.394,2.411,44.801,7.166
	c4.24,1.4,8.812-0.903,10.211-5.144c1.399-4.24-0.903-8.812-5.143-10.211c-16.044-5.296-32.822-7.981-49.869-7.981
	C71.322,194.007,0,265.333,0,353.004S71.322,512,158.99,512s158.989-71.325,158.989-158.996c0-17.049-2.685-33.83-7.982-49.876
	C308.598,298.889,304.03,296.585,299.786,297.984z M167.074,266.768c0-4.465-3.618-8.084-8.084-8.084
	c-52.006,0-94.316,42.312-94.316,94.32c0,27.577,12.02,53.693,32.978,71.651c1.524,1.306,3.394,1.946,5.256,1.946
	c2.279,0,4.544-0.958,6.143-2.824c2.905-3.391,2.511-8.495-0.878-11.4c-17.369-14.883-27.33-36.523-27.33-59.373
	c0-43.092,35.056-78.151,78.147-78.151C163.455,274.853,167.074,271.233,167.074,266.768z M512,45.79
	c0,12.237-4.765,23.742-13.417,32.394L243.251,333.528c-5.312,5.311-13.025,6.786-19.673,4.429l-37.491,37.493
	c-6.617,6.617-15.414,10.26-24.771,10.26c-9.357,0-18.154-3.644-24.77-10.26c-13.659-13.659-13.659-35.884-0.001-49.544
	l37.483-37.485c-0.715-2.008-1.088-4.148-1.088-6.343c0-5.038,1.962-9.777,5.524-13.339L433.796,13.396
	c17.863-17.862,46.925-17.862,64.786,0C507.235,22.049,512,33.554,512,45.79z M210.857,327.812l-26.677-26.678l-36.203,36.205
	c-7.354,7.356-7.354,19.323,0,26.678c3.562,3.562,8.3,5.525,13.338,5.525c5.039,0,9.775-1.962,13.338-5.525L210.857,327.812z
	 M487.149,24.83c-5.777-5.779-13.369-8.668-20.96-8.668c-7.592,0-15.181,2.889-20.96,8.668L189.897,280.173
	c-1.052,1.051-1.052,2.76,0,3.811l38.109,38.111c1.051,1.051,2.76,1.051,3.81,0L487.149,66.751
	C498.708,55.194,498.708,36.388,487.149,24.83z M296.602,203.951l-68.597,68.599c-3.157,3.157-3.157,8.276,0,11.433
	c1.579,1.578,3.649,2.368,5.717,2.368c2.068,0,4.138-0.789,5.717-2.368l68.597-68.599c3.157-3.157,3.157-8.276,0-11.433
	C304.878,200.794,299.76,200.794,296.602,203.951z"/>
<g>
</g>
<g>
</g>
<g>
</g>
<g>
</g>
<g>
</g>
<g>
</g>
<g>
</g>
<g>
</g>
<g>
</g>
<g>
</g>
<g>
</g>
<g>
</g>
<g>
</g>
<g>
</g>
<g>
</g>
</svg>
