<?xml version="1.0" encoding="utf-8"?>
<!-- Generator: Adobe Illustrator 24.0.0, SVG Export Plug-In . SVG Version: 6.00 Build 0)  -->
<svg version="1.1" xmlns="http://www.w3.org/2000/svg" xmlns:xlink="http://www.w3.org/1999/xlink" x="0px" y="0px"
	 viewBox="0 0 64 64" enable-background="new 0 0 64 64" xml:space="preserve">
<g id="Captions">
</g>
<g id="Icons">
	<g>
		<g>
			<path fill="#C80A50" d="M30,4h4c4.418,0,8,3.582,8,8v12c0,1.105-0.895,2-2,2H24c-1.105,0-2-0.895-2-2V12C22,7.582,25.582,4,30,4z
				"/>
		</g>
		<g>
			<g>
				<rect x="22" y="26" fill="#C80A50" width="20" height="22"/>
			</g>
			<g>
				<path fill="#00A0C8" d="M32,32L32,32c-3.314,0-6-2.686-6-6v0h12v0C38,29.314,35.314,32,32,32z"/>
			</g>
			<g>
				<path fill="#0082AA" d="M29,30v1.19c-1.79-1.03-3-2.97-3-5.19h1.46C28.42,27.06,29,28.46,29,30z"/>
			</g>
			<g>
				<path fill="#0082AA" d="M35,30v1.19c1.79-1.03,3-2.97,3-5.19h-1.46C35.58,27.06,35,28.46,35,30z"/>
			</g>
			<g>
				<path fill="#D2AA82" d="M32,30L32,30c-2.209,0-4-1.791-4-4v-4h8v4C36,28.209,34.209,30,32,30z"/>
			</g>
			<g>
				<path fill="#F0C8A0" d="M30,10h-2c-2.209,0-4,1.791-4,4v0l0,0v4c0,3.314,2.686,6,6,6h4c3.314,0,6-2.686,6-6v-4l0,0h-6
					C31.791,14,30,12.209,30,10L30,10z"/>
			</g>
			<g>
				<path fill="#D2AA82" d="M24,18L24,18l0-4h0c-1.105,0-2,0.895-2,2v0C22,17.105,22.895,18,24,18z"/>
			</g>
			<g>
				<path fill="#D2AA82" d="M40,18L40,18l0-4h0c1.105,0,2,0.895,2,2v0C42,17.105,41.105,18,40,18z"/>
			</g>
		</g>
		<g>
			<path fill="#A00028" d="M28.54,48H42V26h-4c0,2.22-1.21,4.16-3,5.19V34c-1.1,0-2,0.9-2,2c0,1.1,0.9,2,2,2
				c0,2.61,1.67,4.83,4,5.66V46h-6C31.23,46,29.63,46.77,28.54,48z"/>
		</g>
		<g>
			<path fill="#A00028" d="M35.46,48H22V26h4c0,2.22,1.21,4.16,3,5.19V34c1.1,0,2,0.9,2,2c0,1.1-0.9,2-2,2c0,2.61-1.67,4.83-4,5.66
				V46h6C32.77,46,34.37,46.77,35.46,48z"/>
		</g>
		<g>
			<g>
				<path fill="#DC9600" d="M42,24h4c3.314,0,6,2.686,6,6v4H36v-4C36,26.686,38.686,24,42,24z"/>
			</g>
			<g>
				<rect x="34" y="46" transform="matrix(-1 -1.224647e-16 1.224647e-16 -1 88 106)" fill="#00A0C8" width="20" height="14"/>
			</g>
			<g>
				<path fill="#0082AA" d="M34,46.809V60h3v-8C37,49.78,35.792,47.847,34,46.809z"/>
			</g>
			<g>
				<path fill="#0A5078" d="M44,52L44,52c3.314,0,6-2.686,6-6v0H38v0C38,49.314,40.686,52,44,52z"/>
			</g>
			<g>
				<path fill="#D2AA82" d="M44,50L44,50c2.209,0,4-1.791,4-4v-4h-8v4C40,48.209,41.791,50,44,50z"/>
			</g>
			<g>
				<path fill="#F0C8A0" d="M40,28h8c1.105,0,2,0.895,2,2v2c0,1.105,0.895,2,2,2h0l0,0v4c0,3.314-2.686,6-6,6h-4
					c-3.314,0-6-2.686-6-6v-4l0,0h0c1.105,0,2-0.895,2-2v-2C38,28.895,38.895,28,40,28z"/>
			</g>
			<g>
				<path fill="#D2AA82" d="M52,38L52,38l0-4h0c1.105,0,2,0.895,2,2v0C54,37.105,53.105,38,52,38z"/>
			</g>
			<g>
				<path fill="#D2AA82" d="M36,38L36,38l0-4h0c-1.105,0-2,0.895-2,2v0C34,37.105,34.895,38,36,38z"/>
			</g>
			<g>
				<path fill="#0082AA" d="M60,52v8h-6V46C57.314,46,60,48.686,60,52z"/>
			</g>
			<g>
				<path fill="#0082AA" d="M34,46v14h-6v-8C28,48.686,30.686,46,34,46z"/>
			</g>
			<g>
				<path fill="#DC9600" d="M49,22h-7c-2.209,0-4,1.791-4,4v2h8c2.209,0,4-1.791,4-4v-1C50,22.448,49.552,22,49,22z"/>
			</g>
		</g>
		<g>
			<g>
				<path fill="#0A5078" d="M18,24h4c3.314,0,6,2.686,6,6v4H12v-4C12,26.686,14.686,24,18,24z"/>
			</g>
			<g>
				<rect x="10" y="46" transform="matrix(-1 -1.224647e-16 1.224647e-16 -1 40 106)" fill="#FAB400" width="20" height="14"/>
			</g>
			<g>
				<path fill="#00A0C8" d="M20,52L20,52c3.314,0,6-2.686,6-6v0H14v0C14,49.314,16.686,52,20,52z"/>
			</g>
			<g>
				<path fill="#D2AA82" d="M20,50L20,50c2.209,0,4-1.791,4-4v-4h-8v4C16,48.209,17.791,50,20,50z"/>
			</g>
			<g>
				<path fill="#DC9600" d="M36,52v8h-6V46C33.314,46,36,48.686,36,52z"/>
			</g>
			<g>
				<path fill="#DC9600" d="M10,46v14H4v-8C4,48.686,6.686,46,10,46z"/>
			</g>
			<g>
				<path fill="#F0C8A0" d="M16,28h8c1.105,0,2,0.895,2,2v2c0,1.105,0.895,2,2,2h0l0,0v4c0,3.314-2.686,6-6,6h-4
					c-3.314,0-6-2.686-6-6v-4l0,0h0c1.105,0,2-0.895,2-2v-2C14,28.895,14.895,28,16,28z"/>
			</g>
			<g>
				<path fill="#D2AA82" d="M28,38L28,38l0-4h0c1.105,0,2,0.895,2,2v0C30,37.105,29.105,38,28,38z"/>
			</g>
			<g>
				<path fill="#D2AA82" d="M12,38L12,38l0-4h0c-1.105,0-2,0.895-2,2v0C10,37.105,10.895,38,12,38z"/>
			</g>
		</g>
	</g>
</g>
</svg>
